<svg xmlns="http://www.w3.org/2000/svg" width="1280" height="820" viewBox="0 0 1280 820" role="img" aria-labelledby="title desc">
  <title id="title">AI Coding Usage Tracker demo dashboard</title>
  <desc id="desc">A sample local analytics dashboard across Codex, Claude Code, and Cursor with combined lifetime totals, provider logos, cached-input breakdown, searchable tables, and cost estimates.</desc>
  <rect width="1280" height="820" fill="#101114"/>
  <g transform="translate(72 38)" font-family="Segoe UI, Arial, sans-serif">
    <g font-size="12" fill="#a8b0bd">
      <rect x="0" y="0" width="82" height="28" rx="14" fill="#181b20" stroke="#333a45"/>
      <text x="14" y="18">Local-first</text>
      <rect x="96" y="0" width="118" height="28" rx="14" fill="#181b20" stroke="#333a45"/>
      <text x="110" y="18">Codex + Claude</text>
      <rect x="228" y="0" width="88" height="28" rx="14" fill="#181b20" stroke="#333a45"/>
      <text x="242" y="18">+ Cursor</text>
      <rect x="330" y="0" width="104" height="28" rx="14" fill="#181b20" stroke="#333a45"/>
      <text x="344" y="18">Native GUI</text>
      <rect x="448" y="0" width="112" height="28" rx="14" fill="#181b20" stroke="#333a45"/>
      <text x="462" y="18">Cached refresh</text>
      <rect x="574" y="0" width="112" height="28" rx="14" fill="#181b20" stroke="#333a45"/>
      <text x="588" y="18">WakaTime ready</text>
    </g>
    <text x="0" y="76" font-size="34" font-weight="700" fill="#f5f7fa">AI Coding Usage Dashboard</text>
    <text x="0" y="112" font-size="16" fill="#a8b0bd">Combined lifetime view from local Codex, Claude Code, and Cursor data. HTML, web, and desktop GUI share the same reports.</text>

    <g transform="translate(0 132)">
      <rect width="1166" height="56" rx="8" fill="#181b20" stroke="#333a45"/>
      <circle cx="28" cy="28" r="10" fill="#1a1528" stroke="#9d7cff" stroke-width="2"/>
      <text x="46" y="33" font-size="14" font-weight="600" fill="#9d7cff">Codex</text>
      <text x="110" y="33" font-size="13" fill="#a8b0bd">412k tokens</text>
      <circle cx="220" cy="28" r="10" fill="#241812" stroke="#f59e6c" stroke-width="2"/>
      <text x="238" y="33" font-size="14" font-weight="600" fill="#f59e6c">Claude</text>
      <text x="302" y="33" font-size="13" fill="#a8b0bd">198k tokens</text>
      <circle cx="412" cy="28" r="10" fill="#0f1a20" stroke="#36cfe8" stroke-width="2"/>
      <text x="430" y="33" font-size="14" font-weight="600" fill="#36cfe8">Cursor</text>
      <text x="498" y="33" font-size="13" fill="#a8b0bd">77k est.</text>
      <text x="900" y="33" font-size="13" fill="#36c58c">● Active</text>
      <text x="980" y="33" font-size="13" fill="#a8b0bd">cache hit 55%</text>
    </g>

    <g transform="translate(0 208)">
      <g>
        <rect width="210" height="92" rx="8" fill="#181b20" stroke="#333a45"/>
        <text x="18" y="31" font-size="13" fill="#a8b0bd">Apps</text>
        <text x="18" y="68" font-size="26" font-weight="700" fill="#f5f7fa">3</text>
      </g>
      <g transform="translate(224 0)">
        <rect width="230" height="92" rx="8" fill="#181b20" stroke="#333a45"/>
        <text x="18" y="31" font-size="13" fill="#a8b0bd">Threads</text>
        <text x="18" y="68" font-size="26" font-weight="700" fill="#58a6ff">5</text>
      </g>
      <g transform="translate(468 0)">
        <rect width="250" height="92" rx="8" fill="#181b20" stroke="#333a45"/>
        <text x="18" y="31" font-size="13" fill="#a8b0bd">Lifetime tokens</text>
        <text x="18" y="68" font-size="26" font-weight="700" fill="#36c58c">687,000</text>
      </g>
      <g transform="translate(732 0)">
        <rect width="210" height="92" rx="8" fill="#181b20" stroke="#333a45"/>
        <text x="18" y="31" font-size="13" fill="#a8b0bd">Estimated credits</text>
        <text x="18" y="68" font-size="26" font-weight="700" fill="#f1b84b">39.78</text>
      </g>
      <g transform="translate(956 0)">
        <rect width="210" height="92" rx="8" fill="#181b20" stroke="#333a45"/>
        <text x="18" y="31" font-size="13" fill="#a8b0bd">Estimated USD</text>
        <text x="18" y="68" font-size="26" font-weight="700" fill="#ff7b72">$2.02</text>
      </g>
    </g>

    <g transform="translate(0 322)">
      <g>
        <rect width="270" height="82" rx="8" fill="#181b20" stroke="#333a45"/>
        <text x="16" y="30" font-size="13" fill="#a8b0bd">Top project</text>
        <text x="16" y="62" font-size="17" font-weight="700" fill="#f5f7fa">ai-coding-usage-tracker</text>
      </g>
      <g transform="translate(286 0)">
        <rect width="230" height="82" rx="8" fill="#181b20" stroke="#333a45"/>
        <text x="16" y="30" font-size="13" fill="#a8b0bd">Top model</text>
        <text x="16" y="62" font-size="17" font-weight="700" fill="#f5f7fa">gpt-5.5</text>
      </g>
      <g transform="translate(532 0)">
        <rect width="230" height="82" rx="8" fill="#181b20" stroke="#333a45"/>
        <text x="16" y="30" font-size="13" fill="#a8b0bd">Cached input</text>
        <text x="16" y="62" font-size="17" font-weight="700" fill="#f5f7fa">229,000</text>
      </g>
      <g transform="translate(778 0)">
        <rect width="230" height="82" rx="8" fill="#181b20" stroke="#333a45"/>
        <text x="16" y="30" font-size="13" fill="#a8b0bd">Output share</text>
        <text x="16" y="62" font-size="17" font-weight="700" fill="#f5f7fa">7.6%</text>
      </g>
    </g>

    <text x="0" y="458" font-size="20" font-weight="700" fill="#f5f7fa">Usage Tables</text>
    <rect x="790" y="424" width="376" height="46" rx="7" fill="#181b20" stroke="#333a45"/>
    <text x="806" y="453" font-size="15" fill="#a8b0bd">Filter by project, model, app, title, or date</text>

    <text x="0" y="518" font-size="18" font-weight="700" fill="#f5f7fa">Daily Usage</text>
    <g transform="translate(0 536)">
      <rect width="1166" height="122" rx="8" fill="#181b20" stroke="#333a45"/>
      <rect width="1166" height="40" rx="8" fill="#252b33"/>
      <g font-size="13" font-weight="700" fill="#f5f7fa">
        <text x="16" y="25">Date</text>
        <text x="164" y="25">Token volume</text>
        <text x="390" y="25">Total</text>
        <text x="510" y="25">Input</text>
        <text x="640" y="25">Cached input</text>
        <text x="780" y="25">Output</text>
        <text x="910" y="25">Cache hit</text>
        <text x="1030" y="25">Credits</text>
      </g>
      <g font-size="13" fill="#f5f7fa">
        <line x1="0" x2="1166" y1="40" y2="40" stroke="#333a45"/>
        <text x="16" y="66">2026-05-24</text>
        <rect x="164" y="56" width="140" height="8" rx="4" fill="#252b33"/>
        <rect x="164" y="56" width="140" height="8" rx="4" fill="#58a6ff"/>
        <text x="390" y="66">336,000</text>
        <text x="510" y="66">310,000</text>
        <text x="640" y="66">133,000</text>
        <text x="780" y="66">26,000</text>
        <text x="910" y="66">42.9%</text>
        <text x="1030" y="66">37.34</text>
        <line x1="0" x2="1166" y1="82" y2="82" stroke="#333a45"/>
        <text x="16" y="108">2026-05-23</text>
        <rect x="164" y="98" width="140" height="8" rx="4" fill="#252b33"/>
        <rect x="164" y="98" width="66" height="8" rx="4" fill="#58a6ff"/>
        <text x="390" y="108">156,800</text>
        <text x="510" y="108">145,000</text>
        <text x="640" y="108">96,000</text>
        <text x="780" y="108">11,800</text>
        <text x="910" y="108">66.2%</text>
        <text x="1030" y="108">2.43</text>
      </g>
    </g>

    <text x="0" y="712" font-size="18" font-weight="700" fill="#f5f7fa">Projects</text>
    <g transform="translate(0 730)">
      <rect width="1166" height="74" rx="8" fill="#181b20" stroke="#333a45"/>
      <rect width="1166" height="40" rx="8" fill="#252b33"/>
      <g font-size="13" font-weight="700" fill="#f5f7fa">
        <text x="16" y="25">Project</text>
        <text x="310" y="25">Threads</text>
        <text x="430" y="25">Tokens</text>
        <text x="570" y="25">Cache hit</text>
        <text x="710" y="25">Credits</text>
        <text x="850" y="25">USD</text>
      </g>
      <g font-size="13" fill="#f5f7fa">
        <line x1="0" x2="1166" y1="40" y2="40" stroke="#333a45"/>
        <text x="16" y="64">ai-coding-usage-tracker</text>
        <text x="310" y="64">2</text>
        <text x="430" y="64">336,000</text>
        <text x="570" y="64">42.9%</text>
        <text x="710" y="64">37.34</text>
        <text x="850" y="64">$1.49</text>
      </g>
    </g>

    <text x="0" y="806" font-size="13" fill="#a8b0bd">Built by SuvenSeo · v0.2.6 · local HTML, web serve, and native GUI with cached refresh</text>
  </g>
</svg>
